<svg width="96" height="96" viewBox="0 0 96 96" fill="none" xmlns="http://www.w3.org/2000/svg">
  <rect width="96" height="96" rx="24" fill="#0F172A"/>
  <rect x="18" y="18" width="60" height="60" rx="12" fill="url(#paint0_linear)"/>
  <path d="M48 24C32.536 24 20 36.536 20 52C20 67.464 32.536 80 48 80C63.464 80 76 67.464 76 52C76 36.536 63.464 24 48 24ZM48 30C59.045 30 68 38.955 68 50H28C28 38.955 36.955 30 48 30ZM28 54H68C68 65.045 59.045 74 48 74C36.955 74 28 65.045 28 54Z" fill="white" fill-opacity="0.9"/>
  <path d="M48 34C39.1634 34 32 41.1634 32 50C32 58.8366 39.1634 66 48 66C56.8366 66 64 58.8366 64 50C64 41.1634 56.8366 34 48 34ZM48 38C54.6274 38 60 43.3726 60 50H36C36 43.3726 41.3726 38 48 38ZM36 54H60C60 60.6274 54.6274 66 48 66C41.3726 66 36 60.6274 36 54Z" fill="#FCD34D" fill-opacity="0.9"/>
  <defs>
    <linearGradient id="paint0_linear" x1="18" y1="18" x2="78" y2="78" gradientUnits="userSpaceOnUse">
      <stop stop-color="#111827"/>
      <stop offset="1" stop-color="#1F2937"/>
    </linearGradient>
  </defs>
</svg>
